<svg width="20" height="20" viewBox="0 0 20 20" fill="none" xmlns="http://www.w3.org/2000/svg">
<g clip-path="url(#clip0_1_2580)">
<path d="M19.9895 10.1878C19.9895 9.36841 19.9214 8.77047 19.7742 8.15039H10.1992V11.8487H15.8195C15.7062 12.7678 15.0943 14.1519 13.7346 15.082L13.7155 15.2058L16.7429 17.4976L16.9527 17.5181C18.8789 15.7796 19.9895 13.2218 19.9895 10.1878Z" fill="#4285F4"/>
<path d="M10.1991 19.9322C12.9526 19.9322 15.2642 19.0463 16.9526 17.5183L13.7345 15.0822C12.8733 15.669 11.7175 16.0787 10.1991 16.0787C7.5023 16.0787 5.2134 14.3403 4.39747 11.9375L4.27787 11.9474L1.12991 14.3281L1.08875 14.4399C2.76576 17.6954 6.21048 19.9322 10.1991 19.9322Z" fill="#34A853"/>
<path d="M4.3976 11.9363C4.18231 11.3163 4.05771 10.6518 4.05771 9.96534C4.05771 9.27878 4.18231 8.61443 4.38627 7.99435L4.38057 7.86229L1.19316 5.44336L1.08888 5.49183C0.397698 6.84275 0.00109863 8.35977 0.00109863 9.96534C0.00109863 11.5709 0.397698 13.0879 1.08888 14.4388L4.3976 11.9363Z" fill="#FBBC05"/>
<path d="M10.1992 3.85336C12.1142 3.85336 13.4059 4.66168 14.1425 5.33718L17.0206 2.59107C15.253 0.985496 12.9527 0 10.1992 0C6.21054 0 2.76582 2.23672 1.08881 5.49214L4.3862 7.99466C5.21346 5.59183 7.50236 3.85336 10.1992 3.85336Z" fill="#EB4335"/>
</g>
<defs>
<clipPath id="clip0_1_2580">
<rect width="20" height="20" fill="white"/>
</clipPath>
</defs>
</svg>
