<svg width="18" height="16" viewBox="0 0 18 16" fill="none" xmlns="http://www.w3.org/2000/svg">
<g clip-path="url(#clip0_2_12728)">
<path d="M8.25 2.66665H3C2.60218 2.66665 2.22064 2.80713 1.93934 3.05718C1.65804 3.30723 1.5 3.64637 1.5 3.99999V13.3333C1.5 13.6869 1.65804 14.0261 1.93934 14.2761C2.22064 14.5262 2.60218 14.6667 3 14.6667H13.5C13.8978 14.6667 14.2794 14.5262 14.5607 14.2761C14.842 14.0261 15 13.6869 15 13.3333V8.66666M13.875 1.66665C14.1734 1.40144 14.578 1.25244 15 1.25244C15.422 1.25244 15.8266 1.40144 16.125 1.66665C16.4234 1.93187 16.591 2.29158 16.591 2.66665C16.591 3.04173 16.4234 3.40144 16.125 3.66665L9 9.99999L6 10.6667L6.75 7.99999L13.875 1.66665Z" stroke="#1E1E1E" stroke-width="2" stroke-linecap="round" stroke-linejoin="round"/>
</g>
<defs>
<clipPath id="clip0_2_12728">
<rect width="18" height="16" fill="white"/>
</clipPath>
</defs>
</svg>
