<svg width="44" height="44" viewBox="0 0 44 44" fill="none" xmlns="http://www.w3.org/2000/svg">
<path d="M10.725 31.35C12.2833 30.1583 14.025 29.2187 15.95 28.5312C17.875 27.8437 19.8916 27.5 22 27.5C24.1083 27.5 26.125 27.8437 28.05 28.5312C29.975 29.2187 31.7166 30.1583 33.275 31.35C34.3444 30.0972 35.177 28.6764 35.7729 27.0875C36.3687 25.4986 36.6666 23.8028 36.6666 22C36.6666 17.9361 35.2382 14.4757 32.3812 11.6187C29.5243 8.7618 26.0638 7.33333 22 7.33333C17.9361 7.33333 14.4757 8.7618 11.6187 11.6187C8.76176 14.4757 7.33329 17.9361 7.33329 22C7.33329 23.8028 7.63121 25.4986 8.22704 27.0875C8.82288 28.6764 9.65551 30.0972 10.725 31.35ZM22 23.8333C20.1972 23.8333 18.677 23.2146 17.4395 21.9771C16.202 20.7396 15.5833 19.2194 15.5833 17.4167C15.5833 15.6139 16.202 14.0937 17.4395 12.8562C18.677 11.6187 20.1972 11 22 11C23.8027 11 25.3229 11.6187 26.5604 12.8562C27.7979 14.0937 28.4166 15.6139 28.4166 17.4167C28.4166 19.2194 27.7979 20.7396 26.5604 21.9771C25.3229 23.2146 23.8027 23.8333 22 23.8333ZM22 40.3333C19.4638 40.3333 17.0805 39.8521 14.85 38.8896C12.6194 37.9271 10.6791 36.6208 9.02913 34.9708C7.37913 33.3208 6.07288 31.3806 5.11038 29.15C4.14788 26.9194 3.66663 24.5361 3.66663 22C3.66663 19.4639 4.14788 17.0806 5.11038 14.85C6.07288 12.6194 7.37913 10.6792 9.02913 9.02916C10.6791 7.37916 12.6194 6.07291 14.85 5.11041C17.0805 4.14791 19.4638 3.66666 22 3.66666C24.5361 3.66666 26.9194 4.14791 29.15 5.11041C31.3805 6.07291 33.3208 7.37916 34.9708 9.02916C36.6208 10.6792 37.927 12.6194 38.8895 14.85C39.852 17.0806 40.3333 19.4639 40.3333 22C40.3333 24.5361 39.852 26.9194 38.8895 29.15C37.927 31.3806 36.6208 33.3208 34.9708 34.9708C33.3208 36.6208 31.3805 37.9271 29.15 38.8896C26.9194 39.8521 24.5361 40.3333 22 40.3333Z" fill="#0088FF"/>
</svg>
